<svg xmlns="http://www.w3.org/2000/svg" xmlns:xlink="http://www.w3.org/1999/xlink" width="500" zoomAndPan="magnify" viewBox="0 0 375 374.999991" height="500" preserveAspectRatio="xMidYMid meet" version="1.0"><defs><g/><clipPath id="e1aae1ad49"><path d="M 171 111 L 205 111 L 205 187.6875 L 171 187.6875 Z M 171 111 " clip-rule="nonzero"/></clipPath></defs><path fill="#5e17eb" d="M 160.363281 176.644531 C 158.734375 176.644531 157.648438 176.101562 156.5625 175.015625 L 134.855469 153.308594 C 132.683594 151.136719 132.683594 147.882812 134.855469 145.710938 L 156.5625 124.003906 C 158.734375 121.832031 161.992188 121.832031 164.160156 124.003906 C 166.332031 126.175781 166.332031 129.429688 164.160156 131.601562 L 146.253906 149.511719 L 164.160156 167.417969 C 166.332031 169.589844 166.332031 172.847656 164.160156 175.015625 C 163.078125 176.101562 161.992188 176.644531 160.363281 176.644531 Z M 160.363281 176.644531 " fill-opacity="1" fill-rule="nonzero"/><path fill="#5e17eb" d="M 214.632812 176.644531 C 213.003906 176.644531 211.917969 176.101562 210.832031 175.015625 C 208.664062 172.847656 208.664062 169.589844 210.832031 167.417969 L 228.742188 149.511719 L 210.832031 131.601562 C 208.664062 129.429688 208.664062 126.175781 210.832031 124.003906 C 213.003906 121.832031 216.261719 121.832031 218.429688 124.003906 L 240.140625 145.710938 C 242.308594 147.882812 242.308594 151.136719 240.140625 153.308594 L 218.429688 175.015625 C 217.34375 176.101562 216.261719 176.644531 214.632812 176.644531 Z M 214.632812 176.644531 " fill-opacity="1" fill-rule="nonzero"/><g clip-path="url(#e1aae1ad49)"><path fill="#5e17eb" d="M 176.644531 187.5 C 176.101562 187.5 175.558594 187.5 175.015625 186.957031 C 172.300781 185.871094 170.675781 183.15625 171.757812 179.902344 L 193.46875 114.777344 C 194.550781 112.0625 197.265625 110.4375 200.523438 111.523438 C 203.234375 112.605469 204.863281 115.320312 203.777344 118.578125 L 182.070312 183.699219 C 180.984375 185.871094 178.8125 187.5 176.644531 187.5 Z M 176.644531 187.5 " fill-opacity="1" fill-rule="nonzero"/></g><g fill="#5e17eb" fill-opacity="1"><g transform="translate(129.966792, 205.750006)"><g><path d="M 4.15625 -5.21875 L 8.078125 -5.21875 L 6.1875 -10.90625 Z M 0 0 L 0 -0.671875 C 0.65625 -0.804688 1.195312 -1.070312 1.625 -1.46875 C 2.050781 -1.875 2.394531 -2.445312 2.65625 -3.1875 L 6.796875 -14.71875 L 7.984375 -14.71875 L 12.21875 -2.21875 C 12.445312 -1.5625 12.691406 -1.140625 12.953125 -0.953125 C 13.210938 -0.765625 13.597656 -0.671875 14.109375 -0.671875 L 14.109375 0 L 7.640625 0 L 7.640625 -0.65625 C 8.203125 -0.675781 8.597656 -0.765625 8.828125 -0.921875 C 9.066406 -1.078125 9.1875 -1.332031 9.1875 -1.6875 C 9.1875 -1.789062 9.171875 -1.910156 9.140625 -2.046875 C 9.117188 -2.179688 9.085938 -2.3125 9.046875 -2.4375 L 8.375 -4.34375 L 3.84375 -4.34375 L 3.375 -3.09375 C 3.300781 -2.882812 3.242188 -2.679688 3.203125 -2.484375 C 3.160156 -2.285156 3.140625 -2.101562 3.140625 -1.9375 C 3.140625 -1.5625 3.316406 -1.257812 3.671875 -1.03125 C 4.023438 -0.8125 4.535156 -0.691406 5.203125 -0.671875 L 5.203125 0 Z M 0 0 "/></g></g></g><g fill="#5e17eb" fill-opacity="1"><g transform="translate(144.179987, 205.750006)"><g><path d="M 0.90625 0.484375 L 0.796875 -5.171875 L 1.5 -5.171875 C 2.03125 -3.609375 2.753906 -2.394531 3.671875 -1.53125 C 4.597656 -0.675781 5.632812 -0.25 6.78125 -0.25 C 7.65625 -0.25 8.363281 -0.46875 8.90625 -0.90625 C 9.445312 -1.351562 9.71875 -1.929688 9.71875 -2.640625 C 9.71875 -3.296875 9.46875 -3.859375 8.96875 -4.328125 C 8.46875 -4.796875 7.707031 -5.179688 6.6875 -5.484375 C 6.488281 -5.535156 6.203125 -5.613281 5.828125 -5.71875 C 3.960938 -6.257812 2.707031 -6.828125 2.0625 -7.421875 C 1.613281 -7.835938 1.273438 -8.304688 1.046875 -8.828125 C 0.816406 -9.359375 0.703125 -9.921875 0.703125 -10.515625 C 0.703125 -11.710938 1.101562 -12.710938 1.90625 -13.515625 C 2.71875 -14.328125 3.722656 -14.734375 4.921875 -14.734375 C 5.660156 -14.734375 6.398438 -14.546875 7.140625 -14.171875 C 7.890625 -13.796875 8.300781 -13.609375 8.375 -13.609375 C 8.53125 -13.609375 8.71875 -13.703125 8.9375 -13.890625 C 9.164062 -14.085938 9.421875 -14.363281 9.703125 -14.71875 L 10.28125 -14.71875 L 10.34375 -9.40625 L 9.671875 -9.40625 C 9.210938 -10.882812 8.554688 -12.019531 7.703125 -12.8125 C 6.847656 -13.601562 5.859375 -14 4.734375 -14 C 4.046875 -14 3.457031 -13.785156 2.96875 -13.359375 C 2.476562 -12.929688 2.234375 -12.40625 2.234375 -11.78125 C 2.234375 -11.195312 2.46875 -10.703125 2.9375 -10.296875 C 3.40625 -9.890625 4.140625 -9.535156 5.140625 -9.234375 L 5.390625 -9.171875 C 7.660156 -8.535156 9.097656 -7.984375 9.703125 -7.515625 C 10.296875 -7.054688 10.742188 -6.53125 11.046875 -5.9375 C 11.347656 -5.34375 11.5 -4.691406 11.5 -3.984375 C 11.5 -2.597656 11.070312 -1.492188 10.21875 -0.671875 C 9.375 0.148438 8.226562 0.5625 6.78125 0.5625 C 6.28125 0.5625 5.8125 0.507812 5.375 0.40625 C 4.9375 0.300781 4.40625 0.0820312 3.78125 -0.25 C 3.707031 -0.28125 3.609375 -0.332031 3.484375 -0.40625 C 3.234375 -0.539062 3.050781 -0.609375 2.9375 -0.609375 C 2.769531 -0.609375 2.570312 -0.519531 2.34375 -0.34375 C 2.125 -0.175781 1.863281 0.0976562 1.5625 0.484375 Z M 0.90625 0.484375 "/></g></g></g><g fill="#5e17eb" fill-opacity="1"><g transform="translate(156.27487, 205.750006)"><g><path d="M 2.71875 0 L 2.71875 -0.75 C 3.664062 -0.800781 4.265625 -0.921875 4.515625 -1.109375 C 4.765625 -1.296875 4.890625 -1.695312 4.890625 -2.3125 L 4.890625 -13.71875 C 4.015625 -13.664062 3.257812 -13.21875 2.625 -12.375 C 2 -11.53125 1.507812 -10.3125 1.15625 -8.71875 L 0.421875 -8.71875 L 0.609375 -14.4375 L 12.546875 -14.4375 L 12.765625 -8.71875 L 12.0625 -8.71875 C 11.664062 -10.4375 11.140625 -11.695312 10.484375 -12.5 C 9.835938 -13.3125 9.015625 -13.71875 8.015625 -13.71875 L 8.015625 -2.15625 C 8.015625 -1.625 8.160156 -1.253906 8.453125 -1.046875 C 8.753906 -0.847656 9.34375 -0.738281 10.21875 -0.71875 L 10.21875 0 Z M 2.71875 0 "/></g></g></g><g fill="#5e17eb" fill-opacity="1"><g transform="translate(169.472836, 205.750006)"><g><path d="M 5.640625 -7.765625 L 7.34375 -7.765625 C 8.25 -7.765625 8.925781 -8.019531 9.375 -8.53125 C 9.832031 -9.050781 10.0625 -9.832031 10.0625 -10.875 C 10.0625 -11.914062 9.835938 -12.664062 9.390625 -13.125 C 8.941406 -13.582031 8.203125 -13.8125 7.171875 -13.8125 C 6.617188 -13.8125 6.222656 -13.695312 5.984375 -13.46875 C 5.753906 -13.25 5.640625 -12.867188 5.640625 -12.328125 Z M 0.609375 0 L 0.625 -0.75 C 1.40625 -0.78125 1.894531 -0.863281 2.09375 -1 C 2.300781 -1.144531 2.40625 -1.476562 2.40625 -2 L 2.40625 -12.34375 C 2.40625 -12.882812 2.304688 -13.25 2.109375 -13.4375 C 1.921875 -13.632812 1.554688 -13.734375 1.015625 -13.734375 L 0.609375 -13.734375 L 0.609375 -14.4375 L 7.640625 -14.4375 C 9.484375 -14.4375 10.925781 -14.125 11.96875 -13.5 C 13.007812 -12.875 13.53125 -12.023438 13.53125 -10.953125 C 13.53125 -9.960938 13.097656 -9.132812 12.234375 -8.46875 C 11.367188 -7.800781 10.175781 -7.378906 8.65625 -7.203125 C 9.4375 -6.972656 10.140625 -6.59375 10.765625 -6.0625 C 11.390625 -5.53125 11.84375 -4.929688 12.125 -4.265625 C 12.238281 -3.960938 12.359375 -3.554688 12.484375 -3.046875 C 12.703125 -2.210938 13.019531 -1.796875 13.4375 -1.796875 C 13.695312 -1.796875 13.898438 -1.929688 14.046875 -2.203125 C 14.191406 -2.472656 14.28125 -2.863281 14.3125 -3.375 L 14.984375 -3.375 C 14.929688 -2.28125 14.65625 -1.421875 14.15625 -0.796875 C 13.65625 -0.179688 12.988281 0.125 12.15625 0.125 C 11.019531 0.125 10.148438 -0.320312 9.546875 -1.21875 C 8.953125 -2.113281 8.65625 -3.40625 8.65625 -5.09375 C 8.65625 -5.65625 8.488281 -6.109375 8.15625 -6.453125 C 7.832031 -6.804688 7.398438 -6.984375 6.859375 -6.984375 L 5.640625 -6.984375 L 5.640625 -2 C 5.640625 -1.488281 5.765625 -1.148438 6.015625 -0.984375 C 6.273438 -0.828125 6.820312 -0.75 7.65625 -0.75 L 7.65625 0 Z M 0.609375 0 "/></g></g></g><g fill="#5e17eb" fill-opacity="1"><g transform="translate(184.847687, 205.750006)"><g><path d="M 4.15625 -5.21875 L 8.078125 -5.21875 L 6.1875 -10.90625 Z M 0 0 L 0 -0.671875 C 0.65625 -0.804688 1.195312 -1.070312 1.625 -1.46875 C 2.050781 -1.875 2.394531 -2.445312 2.65625 -3.1875 L 6.796875 -14.71875 L 7.984375 -14.71875 L 12.21875 -2.21875 C 12.445312 -1.5625 12.691406 -1.140625 12.953125 -0.953125 C 13.210938 -0.765625 13.597656 -0.671875 14.109375 -0.671875 L 14.109375 0 L 7.640625 0 L 7.640625 -0.65625 C 8.203125 -0.675781 8.597656 -0.765625 8.828125 -0.921875 C 9.066406 -1.078125 9.1875 -1.332031 9.1875 -1.6875 C 9.1875 -1.789062 9.171875 -1.910156 9.140625 -2.046875 C 9.117188 -2.179688 9.085938 -2.3125 9.046875 -2.4375 L 8.375 -4.34375 L 3.84375 -4.34375 L 3.375 -3.09375 C 3.300781 -2.882812 3.242188 -2.679688 3.203125 -2.484375 C 3.160156 -2.285156 3.140625 -2.101562 3.140625 -1.9375 C 3.140625 -1.5625 3.316406 -1.257812 3.671875 -1.03125 C 4.023438 -0.8125 4.535156 -0.691406 5.203125 -0.671875 L 5.203125 0 Z M 0 0 "/></g></g></g><g fill="#5e17eb" fill-opacity="1"><g transform="translate(199.060882, 205.750006)"><g><path d="M 9.421875 -0.828125 C 9.429688 -0.921875 9.441406 -1.019531 9.453125 -1.125 C 9.460938 -1.238281 9.46875 -1.40625 9.46875 -1.625 C 9.46875 -2.289062 9.304688 -2.796875 8.984375 -3.140625 C 8.671875 -3.484375 8.21875 -3.65625 7.625 -3.65625 C 7.164062 -3.65625 6.796875 -3.492188 6.515625 -3.171875 C 6.242188 -2.859375 6.109375 -2.441406 6.109375 -1.921875 C 6.109375 -1.359375 6.242188 -0.9375 6.515625 -0.65625 C 6.785156 -0.382812 7.195312 -0.25 7.75 -0.25 C 8.007812 -0.25 8.28125 -0.296875 8.5625 -0.390625 C 8.851562 -0.484375 9.140625 -0.628906 9.421875 -0.828125 Z M 5.5 -1.125 C 5.457031 -1.351562 5.429688 -1.523438 5.421875 -1.640625 C 5.410156 -1.753906 5.40625 -1.851562 5.40625 -1.9375 C 5.40625 -2.632812 5.625 -3.203125 6.0625 -3.640625 C 6.507812 -4.085938 7.082031 -4.3125 7.78125 -4.3125 C 8.351562 -4.3125 8.878906 -4.144531 9.359375 -3.8125 C 9.847656 -3.488281 10.234375 -3.03125 10.515625 -2.4375 C 10.734375 -2.894531 10.894531 -3.535156 11 -4.359375 C 11.101562 -5.191406 11.15625 -6.253906 11.15625 -7.546875 C 11.15625 -9.816406 10.878906 -11.476562 10.328125 -12.53125 C 9.773438 -13.59375 8.898438 -14.125 7.703125 -14.125 C 6.492188 -14.125 5.597656 -13.53125 5.015625 -12.34375 C 4.441406 -11.164062 4.15625 -9.335938 4.15625 -6.859375 C 4.15625 -5.398438 4.265625 -4.210938 4.484375 -3.296875 C 4.703125 -2.390625 5.039062 -1.664062 5.5 -1.125 Z M 14.546875 -0.921875 L 15.125 -0.921875 C 15.125 -0.859375 15.125 -0.789062 15.125 -0.71875 C 15.132812 -0.644531 15.140625 -0.53125 15.140625 -0.375 C 15.140625 0.75 14.890625 1.632812 14.390625 2.28125 C 13.898438 2.9375 13.234375 3.265625 12.390625 3.265625 C 11.617188 3.265625 11.003906 3.019531 10.546875 2.53125 C 10.085938 2.039062 9.738281 1.269531 9.5 0.21875 C 9.195312 0.320312 8.910156 0.394531 8.640625 0.4375 C 8.378906 0.488281 8.125 0.515625 7.875 0.515625 C 7.070312 0.515625 6.285156 0.378906 5.515625 0.109375 C 4.742188 -0.148438 4.054688 -0.523438 3.453125 -1.015625 C 2.609375 -1.722656 1.9375 -2.617188 1.4375 -3.703125 C 0.945312 -4.785156 0.703125 -5.914062 0.703125 -7.09375 C 0.703125 -8.125 0.875 -9.097656 1.21875 -10.015625 C 1.5625 -10.941406 2.0625 -11.769531 2.71875 -12.5 C 3.363281 -13.21875 4.113281 -13.769531 4.96875 -14.15625 C 5.832031 -14.539062 6.722656 -14.734375 7.640625 -14.734375 C 8.554688 -14.734375 9.429688 -14.539062 10.265625 -14.15625 C 11.109375 -13.78125 11.859375 -13.234375 12.515625 -12.515625 C 13.171875 -11.804688 13.671875 -10.984375 14.015625 -10.046875 C 14.367188 -9.117188 14.546875 -8.144531 14.546875 -7.125 C 14.546875 -5.832031 14.269531 -4.617188 13.71875 -3.484375 C 13.175781 -2.347656 12.425781 -1.441406 11.46875 -0.765625 C 11.726562 -0.191406 12.03125 0.242188 12.375 0.546875 C 12.71875 0.859375 13.0625 1.015625 13.40625 1.015625 C 13.75 1.015625 14.015625 0.859375 14.203125 0.546875 C 14.390625 0.234375 14.503906 -0.253906 14.546875 -0.921875 Z M 14.546875 -0.921875 "/></g></g></g><g fill="#5e17eb" fill-opacity="1"><g transform="translate(214.416208, 205.750006)"><g><path d="M 0.40625 -13.734375 L 0.40625 -14.4375 L 7.515625 -14.4375 L 7.515625 -13.734375 L 7.40625 -13.734375 C 6.664062 -13.734375 6.15625 -13.609375 5.875 -13.359375 C 5.59375 -13.109375 5.453125 -12.648438 5.453125 -11.984375 L 5.453125 -4.03125 C 5.453125 -2.6875 5.703125 -1.738281 6.203125 -1.1875 C 6.710938 -0.632812 7.550781 -0.359375 8.71875 -0.359375 C 9.789062 -0.359375 10.617188 -0.664062 11.203125 -1.28125 C 11.796875 -1.894531 12.09375 -2.757812 12.09375 -3.875 L 12.09375 -11.125 C 12.09375 -11.96875 11.925781 -12.585938 11.59375 -12.984375 C 11.269531 -13.390625 10.726562 -13.640625 9.96875 -13.734375 L 9.96875 -14.4375 L 14.921875 -14.4375 L 14.921875 -13.734375 C 14.253906 -13.648438 13.753906 -13.410156 13.421875 -13.015625 C 13.097656 -12.628906 12.9375 -12.082031 12.9375 -11.375 L 12.9375 -4.59375 C 12.9375 -3.625 12.878906 -2.90625 12.765625 -2.4375 C 12.660156 -1.96875 12.476562 -1.550781 12.21875 -1.1875 C 11.800781 -0.59375 11.265625 -0.160156 10.609375 0.109375 C 9.960938 0.390625 9.148438 0.53125 8.171875 0.53125 C 7.023438 0.53125 6.03125 0.394531 5.1875 0.125 C 4.34375 -0.144531 3.695312 -0.539062 3.25 -1.0625 C 2.957031 -1.382812 2.75 -1.757812 2.625 -2.1875 C 2.5 -2.625 2.4375 -3.21875 2.4375 -3.96875 L 2.4375 -11.78125 C 2.4375 -12.582031 2.296875 -13.109375 2.015625 -13.359375 C 1.742188 -13.609375 1.207031 -13.734375 0.40625 -13.734375 Z M 0.40625 -13.734375 "/></g></g></g><g fill="#5e17eb" fill-opacity="1"><g transform="translate(229.712964, 205.750006)"><g><path d="M 5.875 -7.84375 C 5.925781 -7.832031 5.984375 -7.828125 6.046875 -7.828125 C 6.117188 -7.828125 6.21875 -7.828125 6.34375 -7.828125 C 7.15625 -7.828125 7.773438 -8.046875 8.203125 -8.484375 C 8.640625 -8.929688 8.941406 -9.664062 9.109375 -10.6875 L 9.734375 -10.6875 L 9.734375 -3.9375 L 9.109375 -3.9375 C 8.992188 -5.070312 8.695312 -5.882812 8.21875 -6.375 C 7.75 -6.875 7.03125 -7.125 6.0625 -7.125 L 5.875 -7.125 L 5.875 -2.125 C 5.875 -1.550781 5.988281 -1.164062 6.21875 -0.96875 C 6.445312 -0.78125 6.929688 -0.6875 7.671875 -0.6875 C 8.992188 -0.6875 10.054688 -1.050781 10.859375 -1.78125 C 11.660156 -2.507812 12.375 -3.78125 13 -5.59375 L 13.734375 -5.59375 L 13.5 0 L 0.59375 0 L 0.609375 -0.6875 C 1.460938 -0.71875 2.019531 -0.835938 2.28125 -1.046875 C 2.539062 -1.265625 2.671875 -1.703125 2.671875 -2.359375 L 2.671875 -12.15625 C 2.671875 -12.78125 2.535156 -13.203125 2.265625 -13.421875 C 2.003906 -13.648438 1.5 -13.765625 0.75 -13.765625 L 0.59375 -13.765625 L 0.59375 -14.4375 L 13.140625 -14.4375 L 13.4375 -9.28125 L 12.625 -9.1875 C 12.226562 -10.769531 11.613281 -11.9375 10.78125 -12.6875 C 9.945312 -13.4375 8.847656 -13.8125 7.484375 -13.8125 C 6.929688 -13.8125 6.523438 -13.695312 6.265625 -13.46875 C 6.003906 -13.25 5.875 -12.90625 5.875 -12.4375 Z M 5.875 -7.84375 "/></g></g></g></svg>