<?xml version="1.0" encoding="UTF-8"?>
<!DOCTYPE svg PUBLIC "-//W3C//DTD SVG 1.1//EN" "http://www.w3.org/Graphics/SVG/1.1/DTD/svg11.dtd">
<svg xmlns="http://www.w3.org/2000/svg" version="1.1" width="203px" height="250px" style="shape-rendering:geometricPrecision; text-rendering:geometricPrecision; image-rendering:optimizeQuality; fill-rule:evenodd; clip-rule:evenodd" xmlns:xlink="http://www.w3.org/1999/xlink">
<g><path style="opacity:0.835" fill="#fefffe" d="M 77.5,4.5 C 82.5496,5.19355 87.5496,5.36022 92.5,5C 95.8066,5.65279 98.4733,7.31946 100.5,10C 107.52,12.0784 114.52,14.4118 121.5,17C 127.439,21.5336 131.106,27.5336 132.5,35C 140.33,37.2483 147.663,40.5817 154.5,45C 162.5,50.3333 170.5,55.6667 178.5,61C 183.675,66.8761 189.175,72.3761 195,77.5C 201.873,88.4188 199.207,92.4188 187,89.5C 188.042,93.3891 187.208,96.8891 184.5,100C 179.72,101.03 175.387,100.03 171.5,97C 159.09,84.9304 148.59,71.4304 140,56.5C 138.106,53.1558 135.273,51.8224 131.5,52.5C 131.227,59.9508 133.727,66.2841 139,71.5C 145.133,83.841 146.633,96.6743 143.5,110C 150.98,124.276 150.813,138.443 143,152.5C 141.294,161.992 138.96,171.326 136,180.5C 136.191,193.042 134.691,205.375 131.5,217.5C 134.165,222.839 134.165,228.173 131.5,233.5C 120.987,237.282 110.32,240.782 99.5,244C 78.2076,247.004 57.5409,244.671 37.5,237C 36.363,231.918 36.1963,226.751 37,221.5C 37.6355,220.034 38.4688,218.7 39.5,217.5C 38.7213,212.887 38.2213,208.22 38,203.5C 27.7863,206.27 17.6197,206.103 7.5,203C 2.78825,185.54 3.95492,168.374 11,151.5C 16.4746,136.368 22.808,121.701 30,107.5C 33.0641,102.211 37.5641,98.7108 43.5,97C 50.7692,94.6832 58.1025,92.6832 65.5,91C 60.868,89.9279 56.2013,88.9279 51.5,88C 47.1762,85.9102 45.3429,82.4102 46,77.5C 45.3333,76.8333 44.6667,76.1667 44,75.5C 43.6667,71.5 43.3333,67.5 43,63.5C 39.22,60.4943 38.5533,56.8277 41,52.5C 43.039,50.1255 45.3723,48.1255 48,46.5C 48.3333,44.1667 48.6667,41.8333 49,39.5C 53.3757,32.581 57.8757,25.7477 62.5,19C 64.3333,17.8333 66.1667,16.6667 68,15.5C 68.5621,9.44609 71.7287,5.77943 77.5,4.5 Z M 78.5,9.5 C 82.5412,10.4025 86.5412,10.4025 90.5,9.5C 93.8323,10.327 96.4989,12.1604 98.5,15C 107.363,15.2299 111.196,19.7299 110,28.5C 108.235,25.527 105.735,23.3604 102.5,22C 95.9334,20.3501 89.2667,19.3501 82.5,19C 79.9519,16.1988 76.9519,15.6988 73.5,17.5C 72.803,13.2219 74.4697,10.5553 78.5,9.5 Z M 66.5,85.5 C 61.6538,85.2377 56.9871,84.2377 52.5,82.5C 52.2066,78.8068 50.8733,75.6401 48.5,73C 48.3935,68.9097 48.5601,64.743 49,60.5C 47.414,59.624 45.914,58.624 44.5,57.5C 47.4285,54.0681 50.5951,50.7348 54,47.5C 54.6514,45.765 54.4847,44.0983 53.5,42.5C 57.3776,34.0657 62.711,26.7324 69.5,20.5C 73.092,21.907 76.7587,23.0737 80.5,24C 87.5843,24.4406 94.5843,25.4406 101.5,27C 111.766,36.6193 112.933,47.1193 105,58.5C 105.635,66.6349 103.802,74.1349 99.5,81C 99.9177,83.6001 101.084,85.7668 103,87.5C 103.667,88.5 103.667,89.5 103,90.5C 93.6694,100.83 84.0028,110.83 74,120.5C 73.3333,118.167 73.3333,115.833 74,113.5C 75.676,113.037 77.176,111.704 78.5,109.5C 78.1964,107.559 77.3631,105.893 76,104.5C 75.4768,96.7869 72.3102,90.4536 66.5,85.5 Z M 115.5,26.5 C 117.085,27.0024 117.585,28.0024 117,29.5C 115.961,28.7562 115.461,27.7562 115.5,26.5 Z M 112.5,33.5 C 114.96,35.3981 115.96,37.7314 115.5,40.5C 114.217,38.2699 113.217,35.9366 112.5,33.5 Z M 121.5,37.5 C 120.152,36.4732 119.652,35.1398 120,33.5C 121.188,34.5634 121.688,35.8967 121.5,37.5 Z M 123.5,47.5 C 124.486,51.97 124.819,56.6367 124.5,61.5C 123.325,61.719 122.325,61.3857 121.5,60.5C 123.185,56.3393 123.852,52.006 123.5,47.5 Z M 150.5,49.5 C 163.223,55.2102 174.223,63.3769 183.5,74C 181.513,75.3189 180.346,77.1523 180,79.5C 176,74.8333 172,70.1667 168,65.5C 162.188,60.0334 156.355,54.7 150.5,49.5 Z M 142.5,51.5 C 154.769,59.4347 165.102,69.4347 173.5,81.5C 169.911,86.4007 166.411,86.4007 163,81.5C 156.394,71.2689 149.561,61.2689 142.5,51.5 Z M 110.5,58.5 C 111.043,58.56 111.376,58.8933 111.5,59.5C 110.902,60.7946 110.402,62.1279 110,63.5C 109.36,61.735 109.527,60.0683 110.5,58.5 Z M 120.5,66.5 C 121.675,66.281 122.675,66.6143 123.5,67.5C 118.992,78.1539 117.992,77.8205 120.5,66.5 Z M 128.5,68.5 C 128.56,67.9569 128.893,67.6236 129.5,67.5C 136.447,76.7563 140.114,87.2563 140.5,99C 140.363,101.898 139.863,104.731 139,107.5C 138.13,106.892 137.63,106.059 137.5,105C 138.859,99.134 138.692,93.3007 137,87.5C 134.666,80.84 131.832,74.5067 128.5,68.5 Z M 85.5,73.5 C 87.9783,75.4827 88.1449,77.816 86,80.5C 84.2771,78.3332 84.1104,75.9998 85.5,73.5 Z M 111.5,75.5 C 112.49,80.3592 112.99,85.3592 113,90.5C 111.612,85.6278 111.112,80.6278 111.5,75.5 Z M 125.5,75.5 C 131.491,83.1465 133.825,91.8132 132.5,101.5C 126.391,99.5572 123.058,95.3905 122.5,89C 123.341,84.449 124.341,79.949 125.5,75.5 Z M 186.5,77.5 C 196.71,85.1819 195.71,87.3486 183.5,84C 185.171,82.1575 186.171,79.9908 186.5,77.5 Z M 105.5,78.5 C 106.613,79.9464 106.78,81.6131 106,83.5C 105.626,82.5838 105.126,81.7504 104.5,81C 105.252,80.3292 105.586,79.4959 105.5,78.5 Z M 117.5,80.5 C 118.239,80.369 118.906,80.5357 119.5,81C 118.123,88.3422 117.456,88.1755 117.5,80.5 Z M 175.5,86.5 C 178.753,87.7634 180.753,90.2634 181.5,94C 181.167,94.5 180.833,95 180.5,95.5C 177.166,94.1686 174.166,92.3353 171.5,90C 173.324,89.34 174.657,88.1733 175.5,86.5 Z M 62.5,96.5 C 67.8366,95.6642 68.6699,96.9976 65,100.5C 63.5187,99.5291 62.6854,98.1958 62.5,96.5 Z M 103.5,97.5 C 101.949,100.563 99.7821,103.229 97,105.5C 98.1143,102.195 100.281,99.5284 103.5,97.5 Z M 111.5,97.5 C 113.933,99.0504 116.433,99.3837 119,98.5C 119.903,99.7014 121.069,100.535 122.5,101C 118.55,102.606 114.55,102.773 110.5,101.5C 111.246,100.264 111.579,98.9305 111.5,97.5 Z M 63.5,102.5 C 61.7188,105.223 60.0521,108.057 58.5,111C 52.0819,111.115 51.0819,113.282 55.5,117.5C 53.249,118.818 51.249,120.484 49.5,122.5C 50.3805,123.971 51.7139,124.804 53.5,125C 52.6634,126.011 52.33,127.178 52.5,128.5C 48.8388,128.35 47.8388,129.85 49.5,133C 50.7932,133.49 52.1266,133.657 53.5,133.5C 52.6404,135.816 52.1404,138.149 52,140.5C 54.0258,141.019 56.0258,141.353 58,141.5C 57.9636,148.819 57.7969,156.152 57.5,163.5C 54.5752,164.639 51.5752,165.139 48.5,165C 46.9588,163.421 45.7922,161.587 45,159.5C 44.3333,152.5 44.3333,145.5 45,138.5C 46.2659,135.331 46.2659,132.331 45,129.5C 44.6753,125.33 44.5086,121.33 44.5,117.5C 43.3493,116.269 42.1827,116.269 41,117.5C 39.9706,121.429 39.1373,125.429 38.5,129.5C 34.9808,128.068 31.3142,127.234 27.5,127C 29.7333,117.186 34.7333,109.186 42.5,103C 49.4566,99.8359 56.4566,99.6692 63.5,102.5 Z M 99.5,163.5 C 102.084,158.269 104.584,152.935 107,147.5C 106.011,139.372 106.345,131.372 108,123.5C 106.951,122.483 105.784,122.316 104.5,123C 101.857,126.679 100.524,130.846 100.5,135.5C 101.456,146.137 98.4561,155.637 91.5,164C 88.8404,163.316 86.1738,163.483 83.5,164.5C 79.8834,163.877 77.5501,161.877 76.5,158.5C 77.0142,153.149 77.6809,147.816 78.5,142.5C 82.6217,149.448 84.6217,148.781 84.5,140.5C 86.7373,141.449 89.0706,142.116 91.5,142.5C 91.5,140.5 91.5,138.5 91.5,136.5C 95.6475,137.743 96.9808,136.243 95.5,132C 96.7659,131.691 97.9326,131.191 99,130.5C 99.1554,128.144 99.1554,125.811 99,123.5C 102.167,118.5 105.333,113.5 108.5,108.5C 115.769,107.127 123.102,106.627 130.5,107C 134.239,110.617 138.072,114.117 142,117.5C 146.028,128.11 145.028,138.11 139,147.5C 137.429,157.355 135.096,167.021 132,176.5C 129.187,174.969 129.021,172.969 131.5,170.5C 130.833,169.167 129.833,168.167 128.5,167.5C 126.768,169.283 125.268,171.283 124,173.5C 124.149,171.187 124.649,168.853 125.5,166.5C 125.253,163.918 123.92,163.085 121.5,164C 117.967,172.728 116.967,172.562 118.5,163.5C 117.127,163.343 115.793,163.51 114.5,164C 113.95,165.845 112.95,167.345 111.5,168.5C 111.254,166.78 111.254,164.78 111.5,162.5C 108.192,161.974 106.026,163.307 105,166.5C 104.918,161.543 103.085,160.543 99.5,163.5 Z M 91.5,118.5 C 94.1662,115.001 97.3329,112.001 101,109.5C 100.011,113.133 98.1776,116.466 95.5,119.5C 94.2638,118.754 92.9305,118.421 91.5,118.5 Z M 63.5,113.5 C 62.2103,118.479 60.877,123.479 59.5,128.5C 58.6919,128.192 58.0253,127.692 57.5,127C 58.6807,122.065 60.6807,117.565 63.5,113.5 Z M 90.5,119.5 C 90.9052,121.65 91.4052,123.65 92,125.5C 90.3005,124.594 88.4672,124.261 86.5,124.5C 86.5,125.833 86.5,127.167 86.5,128.5C 82.2638,129.484 81.5971,131.651 84.5,135C 82.6199,134.49 80.7866,134.657 79,135.5C 78.7744,132.905 78.2744,130.405 77.5,128C 82.2564,125.731 86.5898,122.897 90.5,119.5 Z M 65.5,124.5 C 67.7463,124.936 69.9129,125.603 72,126.5C 72.498,129.482 72.6646,132.482 72.5,135.5C 69.8806,135.768 67.3806,135.435 65,134.5C 64.8281,131.174 64.9947,127.841 65.5,124.5 Z M 86.5,128.5 C 88.2252,128.843 88.7252,129.843 88,131.5C 87.4867,130.473 86.9867,129.473 86.5,128.5 Z M 24.5,132.5 C 30.2328,131.895 35.5661,133.062 40.5,136C 39.8742,136.75 39.3742,137.584 39,138.5C 34.181,135.963 29.3476,133.963 24.5,132.5 Z M 22.5,139.5 C 28.5918,139.476 34.2584,140.976 39.5,144C 38.9103,145.509 38.2436,147.009 37.5,148.5C 34.0198,144.705 30.1865,144.039 26,146.5C 25.7811,147.938 25.2811,149.271 24.5,150.5C 22.2241,149.787 19.8907,149.287 17.5,149C 19.2919,145.917 20.9586,142.75 22.5,139.5 Z M 68.5,141.5 C 69.3864,140.224 70.3864,140.224 71.5,141.5C 72.3256,142.451 72.4922,143.451 72,144.5C 70.9609,143.29 69.7942,142.29 68.5,141.5 Z M 63.5,144.5 C 65.5441,145.031 67.2107,146.198 68.5,148C 65.0743,149.238 63.4077,148.071 63.5,144.5 Z M 30.5,150.5 C 34.4711,152.719 37.3044,156.052 39,160.5C 43.6029,168.822 41.4362,171.655 32.5,169C 29.7664,161.934 24.7664,157.267 17.5,155C 25.3239,154.25 30.6572,157.583 33.5,165C 34.7932,165.49 36.1266,165.657 37.5,165.5C 37.477,163.073 36.977,160.74 36,158.5C 33.9205,155.935 32.0872,153.268 30.5,150.5 Z M 62.5,152.5 C 64.5273,152.338 66.5273,152.505 68.5,153C 66.6667,154.167 64.8333,155.333 63,156.5C 62.51,155.207 62.3433,153.873 62.5,152.5 Z M 70.5,157.5 C 71.0431,157.56 71.3764,157.893 71.5,158.5C 70.635,159.583 69.635,159.749 68.5,159C 69.4158,158.722 70.0825,158.222 70.5,157.5 Z M 19.5,161.5 C 21.8863,162.373 23.8863,163.873 25.5,166C 22.8793,165.573 20.8793,164.073 19.5,161.5 Z M 11.5,164.5 C 13.9828,164.73 14.4828,165.397 13,166.5C 11.9701,166.164 11.4701,165.497 11.5,164.5 Z M 62.5,164.5 C 65.5184,164.335 68.5184,164.502 71.5,165C 69.0389,167.338 66.0389,168.505 62.5,168.5C 62.5,167.167 62.5,165.833 62.5,164.5 Z M 95.5,168.5 C 106.625,172.098 117.625,176.098 128.5,180.5C 129.386,181.325 129.719,182.325 129.5,183.5C 118.72,179.114 107.72,175.28 96.5,172C 95.6634,170.989 95.33,169.822 95.5,168.5 Z M 11.5,196.5 C 12.8195,197.942 14.4862,198.608 16.5,198.5C 16.7551,195.063 15.5884,192.396 13,190.5C 11.7387,190.759 10.7387,191.426 10,192.5C 8.16988,185.797 8.33654,179.13 10.5,172.5C 19.0852,170.795 27.4185,171.628 35.5,175C 38.3333,175.167 41.1667,175.333 44,175.5C 59.4405,173.232 74.9405,171.565 90.5,170.5C 92.6473,188.005 86.6473,191.339 72.5,180.5C 69.8469,181.285 69.1802,182.785 70.5,185C 63.8558,185.887 57.1892,186.554 50.5,187C 44.809,189.048 38.9757,190.548 33,191.5C 28.9046,189.895 24.738,188.562 20.5,187.5C 20.0807,190.325 21.0807,192.491 23.5,194C 26.2108,195.22 29.0441,196.053 32,196.5C 39.2156,195.238 46.3823,193.738 53.5,192C 56.1667,191.333 58.8333,191.333 61.5,192C 56.1342,194.849 50.4676,196.849 44.5,198C 33.5438,199.319 22.5438,199.819 11.5,199.5C 11.5,198.5 11.5,197.5 11.5,196.5 Z M 112.5,184.5 C 112.147,186.635 112.98,187.968 115,188.5C 116.767,187.66 118.101,186.327 119,184.5C 119.333,184.833 119.667,185.167 120,185.5C 120.115,187.107 119.615,188.607 118.5,190C 119.059,192.188 120.393,192.854 122.5,192C 123.618,190.926 124.618,189.76 125.5,188.5C 125.833,188.833 126.167,189.167 126.5,189.5C 123.438,198.727 119.438,207.394 114.5,215.5C 114.853,213.365 114.02,212.032 112,211.5C 109.039,213.379 105.873,214.879 102.5,216C 101.385,218.894 102.552,220.061 106,219.5C 108.922,219.452 111.422,218.452 113.5,216.5C 111.929,219.744 109.595,222.411 106.5,224.5C 103.516,221.674 100.183,219.341 96.5,217.5C 95.7564,216.009 95.0897,214.509 94.5,213C 81.9668,209.936 70.3002,204.936 59.5,198C 63.5446,195.427 67.8779,193.427 72.5,192C 82.8783,191.615 93.2116,190.782 103.5,189.5C 103.762,188.022 103.429,186.689 102.5,185.5C 100.253,184.626 97.9201,184.292 95.5,184.5C 95.3367,182.143 95.5034,179.81 96,177.5C 96.1095,180.646 97.4428,181.646 100,180.5C 100.483,181.448 100.649,182.448 100.5,183.5C 103.421,183.854 105.754,182.854 107.5,180.5C 106.696,182.018 106.696,183.852 107.5,186C 109.495,186.613 111.162,186.113 112.5,184.5 Z M 117.5,221.5 C 122.121,213.922 125.955,205.922 129,197.5C 128.49,204.891 127.323,212.224 125.5,219.5C 122.904,220.482 120.238,221.149 117.5,221.5 Z M 49.5,201.5 C 56.9015,202.534 63.2349,205.701 68.5,211C 79.076,215.629 89.4094,220.629 99.5,226C 82.9789,230.421 66.9789,229.088 51.5,222C 48.8293,220.75 46.6626,218.917 45,216.5C 43.7748,211.915 43.2748,207.248 43.5,202.5C 45.7354,202.795 47.7354,202.461 49.5,201.5 Z M 42.5,222.5 C 45.7109,225.245 49.3776,227.245 53.5,228.5C 51.9447,230.943 51.278,233.61 51.5,236.5C 42.2222,236.029 39.2222,231.362 42.5,222.5 Z M 122.5,225.5 C 128.429,225.205 129.096,227.038 124.5,231C 117.291,233.682 109.957,235.849 102.5,237.5C 102.326,235.139 101.993,232.806 101.5,230.5C 108.825,229.706 115.825,228.039 122.5,225.5 Z M 57.5,230.5 C 59.4286,230.231 61.0953,230.731 62.5,232C 61.3313,234.007 60.6646,236.173 60.5,238.5C 59.1667,238.5 57.8333,238.5 56.5,238.5C 56.4013,235.763 56.7347,233.096 57.5,230.5 Z M 91.5,232.5 C 96.6978,232.081 98.3645,234.248 96.5,239C 94.8659,239.494 93.1992,239.66 91.5,239.5C 91.5,237.167 91.5,234.833 91.5,232.5 Z M 66.5,233.5 C 73.1667,233.5 79.8333,233.5 86.5,233.5C 86.6816,235.591 86.3482,237.591 85.5,239.5C 79.1657,240.655 72.8323,240.655 66.5,239.5C 66.5,237.5 66.5,235.5 66.5,233.5 Z"/></g>
<g><path style="opacity:0.805" fill="#fefffe" d="M 92.5,68.5 C 94.4008,68.5668 96.2341,68.2335 98,67.5C 99.6217,67.9541 100.788,68.9541 101.5,70.5C 99.1509,72.7479 96.3175,74.0812 93,74.5C 91.8118,85.7737 87.1451,87.7737 79,80.5C 74.9811,82.5948 70.8144,84.2615 66.5,85.5C 64.5901,84.316 64.2568,82.816 65.5,81C 70.5617,78.9375 75.3951,76.4375 80,73.5C 80.7065,71.9194 81.5399,70.4194 82.5,69C 79.803,64.5148 80.1363,60.1814 83.5,56C 85.3185,55.2172 86.6518,55.7172 87.5,57.5C 86.7349,59.2951 86.0682,61.1284 85.5,63C 85.6135,64.2798 86.2801,65.1131 87.5,65.5C 90.1325,63.9408 92.6325,62.2741 95,60.5C 97.6905,50.0889 94.5238,47.4223 85.5,52.5C 82.8953,50.7642 82.8953,48.9308 85.5,47C 90.2745,43.5838 94.7745,43.7505 99,47.5C 100.439,52.7625 100.772,58.0958 100,63.5C 97.7272,65.6282 95.2272,67.2949 92.5,68.5 Z M 85.5,73.5 C 84.1104,75.9998 84.2771,78.3332 86,80.5C 88.1449,77.816 87.9783,75.4827 85.5,73.5 Z"/></g>
<g><path style="opacity:0.756" fill="#fefffe" d="M 61.5,48.5 C 63.604,48.2011 65.604,48.5344 67.5,49.5C 68.3256,50.451 68.4922,51.451 68,52.5C 63.5754,53.5768 59.5754,55.5768 56,58.5C 54.8315,57.9915 53.9981,57.1581 53.5,56C 55.408,52.5888 58.0747,50.0888 61.5,48.5 Z"/></g>
<g><path style="opacity:0.69" fill="#fefffe" d="M 70.5,48.5 C 77.1379,49.0694 77.8045,51.0694 72.5,54.5C 69.6095,53.1627 68.9428,51.1627 70.5,48.5 Z"/></g>
<g><path style="opacity:0.727" fill="#fefffe" d="M 75.5,84.5 C 78.9103,84.3838 80.2436,86.0504 79.5,89.5C 75.065,90.0776 73.7317,88.4109 75.5,84.5 Z"/></g>
<g><path style="opacity:0.757" fill="#fefffe" d="M 80.5,90.5 C 84.3604,92.1396 86.8604,95.1396 88,99.5C 88.8837,101.641 88.3837,103.307 86.5,104.5C 81.94,100.792 79.94,96.1252 80.5,90.5 Z"/></g>
<g><path style="opacity:0.679" fill="#fefffe" d="M 52.5,102.5 C 56.35,102.701 57.35,104.534 55.5,108C 51.8297,107.836 50.8297,106.003 52.5,102.5 Z"/></g>
<g><path style="opacity:0.761" fill="#fefffe" d="M 43.5,104.5 C 45.8333,104.5 48.1667,104.5 50.5,104.5C 50.67,105.822 50.3366,106.989 49.5,108C 47.1667,109.167 44.8333,110.333 42.5,111.5C 41.2801,111.113 40.6135,110.28 40.5,109C 41.3146,107.357 42.3146,105.857 43.5,104.5 Z"/></g>
<g><path style="opacity:0.679" fill="#fefffe" d="M 127.5,108.5 C 132.681,110.331 132.681,112.331 127.5,114.5C 122.371,112.544 122.371,110.544 127.5,108.5 Z"/></g>
<g><path style="opacity:0.788" fill="#fefffe" d="M 118.5,109.5 C 121.719,110.021 122.719,111.688 121.5,114.5C 117.272,115.438 113.939,117.604 111.5,121C 110.207,121.49 108.873,121.657 107.5,121.5C 109.054,115.611 112.72,111.611 118.5,109.5 Z"/></g>
<g><path style="opacity:0.734" fill="#fefffe" d="M 135.5,118.5 C 139.648,118.453 141.148,120.453 140,124.5C 138.921,126.394 137.587,126.727 136,125.5C 135.503,123.19 135.337,120.857 135.5,118.5 Z"/></g>
<g><path style="opacity:0.709" fill="#fefffe" d="M 137.5,130.5 C 138.833,130.5 140.167,130.5 141.5,130.5C 142.172,133.908 141.172,136.575 138.5,138.5C 136.225,136.168 135.892,133.502 137.5,130.5 Z"/></g>
<g><path style="opacity:0.802" fill="#fefffe" d="M 134.5,140.5 C 135.822,140.33 136.989,140.663 138,141.5C 137.509,149.7 133.343,155.533 125.5,159C 119.558,160.406 113.558,160.739 107.5,160C 106.62,158.644 106.286,157.144 106.5,155.5C 115.992,157.346 124.159,155.013 131,148.5C 132.456,145.924 133.623,143.258 134.5,140.5 Z"/></g>
<g><path style="opacity:0.773" fill="#fefffe" d="M 88.5,155.5 C 90.1667,155.5 91.8333,155.5 93.5,155.5C 93.8378,158.826 92.3378,160.493 89,160.5C 84.553,159.365 84.3864,157.698 88.5,155.5 Z"/></g>
<g><path style="opacity:0.708" fill="#fefffe" d="M 46.5,156.5 C 49.0217,156.128 51.0217,156.961 52.5,159C 48.6892,162.711 46.6892,161.877 46.5,156.5 Z"/></g>
<g><path style="opacity:0.753" fill="#fefffe" d="M 14.5,176.5 C 16.6829,177.85 18.3496,179.684 19.5,182C 17.467,184.818 15.3004,184.651 13,181.5C 12.36,179.457 12.86,177.79 14.5,176.5 Z"/></g>
<g><path style="opacity:0.739" fill="#fefffe" d="M 46.5,177.5 C 49.1873,177.336 51.854,177.503 54.5,178C 55.5171,179.049 55.6838,180.216 55,181.5C 52.5991,182.602 50.0991,182.769 47.5,182C 45.2177,180.916 44.8843,179.416 46.5,177.5 Z"/></g>
<g><path style="opacity:0.584" fill="#fefffe" d="M 11.5,183.5 C 14.8392,185.147 15.1726,187.147 12.5,189.5C 10.261,187.867 9.92766,185.867 11.5,183.5 Z"/></g>
<g><path style="opacity:0.714" fill="#fefffe" d="M 106.5,196.5 C 108.948,196.01 110.615,196.843 111.5,199C 110.576,201.373 109.076,203.206 107,204.5C 105.5,204.333 104.667,203.5 104.5,202C 105.856,200.433 106.523,198.6 106.5,196.5 Z"/></g>
<g><path style="opacity:0.784" fill="#fefffe" d="M 71.5,197.5 C 77.3404,199.082 83.0071,201.248 88.5,204C 93.1042,205.061 97.7709,205.727 102.5,206C 103.727,207.587 103.394,208.921 101.5,210C 97.5,210.667 93.5,210.667 89.5,210C 83.7087,207.791 78.042,205.291 72.5,202.5C 70.5764,201.035 70.2431,199.368 71.5,197.5 Z"/></g>
<g><path style="opacity:0.676" fill="#fefffe" d="M 112.5,204.5 C 117.244,204.038 118.244,205.538 115.5,209C 114.207,209.49 112.873,209.657 111.5,209.5C 111.366,207.708 111.699,206.042 112.5,204.5 Z"/></g>
<g><path style="opacity:0.807" fill="#fefffe" d="M 114.5,215.5 C 113.833,215.5 113.5,215.833 113.5,216.5C 111.422,218.452 108.922,219.452 106,219.5C 102.552,220.061 101.385,218.894 102.5,216C 105.873,214.879 109.039,213.379 112,211.5C 114.02,212.032 114.853,213.365 114.5,215.5 Z"/></g>
</svg>
